<?xml version="1.0" encoding="utf-8"?><svg viewBox="0 0 37 32" xmlns="http://www.w3.org/2000/svg" xmlns:xlink="http://www.w3.org/1999/xlink"><style>:root>svg{display:none}:root>svg:target{display:block}</style><svg fill="none" viewBox="0 0 37 31" id="menu" xmlns="http://www.w3.org/2000/svg"><path d="M3.083 7.744c0-.71.688-1.286 1.534-1.286h12.349c.407 0 .797.136 1.085.377.287.24.449.568.449.909 0 .34-.162.667-.45.908a1.696 1.696 0 0 1-1.084.377H4.617c-.848 0-1.534-.575-1.534-1.285ZM3.083 15.5c0-.71.688-1.285 1.534-1.285h27.766c.406 0 .797.135 1.084.376.288.241.45.568.45.91 0 .34-.162.667-.45.908a1.696 1.696 0 0 1-1.084.376H4.617c-.848 0-1.534-.576-1.534-1.285ZM4.617 21.971c-.407 0-.797.136-1.085.377-.287.24-.449.568-.449.909 0 .34.162.667.45.908.287.241.677.377 1.084.377h18.516c.201 0 .4-.034.587-.098.186-.065.355-.16.497-.279.143-.12.256-.26.333-.417a1.106 1.106 0 0 0 0-.983 1.295 1.295 0 0 0-.333-.417 1.582 1.582 0 0 0-.497-.279 1.795 1.795 0 0 0-.587-.098H4.617Z" fill="#fff"/></svg><svg fill="none" viewBox="0 0 33 32" id="phone" xmlns="http://www.w3.org/2000/svg"><path d="m19.532 20.214 1.722-1.723a1.683 1.683 0 0 1 1.8-.37l2.098.84a1.677 1.677 0 0 1 1.046 1.538v3.845a1.67 1.67 0 0 1-1.753 1.654C9.737 25.083 6.769 12.622 6.208 7.854A1.67 1.67 0 0 1 7.876 6h3.714a1.66 1.66 0 0 1 1.537 1.046l.838 2.1a1.662 1.662 0 0 1-.36 1.8l-1.723 1.723s.992 6.714 7.65 7.545Z" fill="#fff"/></svg></svg>